<svg xmlns="http://www.w3.org/2000/svg" width="482.292" height="159.446"><path fill="#E85A25" d="M57.25 114.79c-9.851 0-17.841-7.994-17.841-17.846v-.007-12.908c-.144-1.082-.737-3.97-2.754-5.987-2.074-2.073-5.465-2.632-6.252-2.738H17.858h-.014C7.99 75.305 0 67.315 0 57.458l.002-.034L0 57.381C0 47.528 7.99 39.54 17.844 39.54h12.381a.165.165 0 00-.02-.019c0 .034 3.951-.331 6.478-2.853 2.123-2.122 2.658-5.621 2.744-6.296V17.854v-.011C39.428 7.985 47.418 0 57.274 0c8.625 0 15.813 6.114 17.478 14.248.239 1.157.364 2.36.364 3.594v12.676c.115.848.669 4.059 2.735 6.116 2.613 2.619 6.367 2.887 6.367 2.887s-.012.009-.015.014H96.714c9.859 0 17.846 7.982 17.846 17.837 0 9.854-7.987 17.846-17.846 17.846-9.854 0-17.841-7.992-17.841-17.846v-.005V44.394c-.167-1.135-.813-3.992-2.799-5.982-2.007-2.006-5.246-2.594-6.165-2.726H57.26 44.793s-3.939.366-6.332 2.759c-2.096 2.096-2.642 4.924-2.775 5.972v25.666c.093.723.621 4.059 2.742 6.184 2.618 2.613 6.379 2.813 6.379 2.813s-.014.02-.019.02H57.25c9.856 0 17.847 7.99 17.847 17.844 0 9.852-7.991 17.846-17.847 17.846zm21.393-96.948c0 9.854 7.987 17.843 17.841 17.843H108.947c0 .002-.02.021-.02.021s3.764.198 6.38 2.813c2.125 2.125 2.651 5.458 2.742 6.184V70.376c-.134 1.039-.677 3.873-2.773 5.963-2.391 2.395-6.334 2.762-6.334 2.762H96.479h-.026H83.826c-.914-.131-4.154-.723-6.164-2.728-1.984-1.981-2.628-4.845-2.8-5.982V57.425v-.004-.01c0-9.854-7.983-17.846-17.841-17.846-9.854 0-17.845 7.992-17.845 17.846 0 9.857 7.991 17.842 17.845 17.842h12.514l-.014.014s3.752.268 6.365 2.887c2.064 2.062 2.62 5.266 2.732 6.111V96.945c0 1.232.129 2.433.366 3.596 1.664 8.132 8.856 14.25 17.476 14.25h.005c9.854 0 17.841-7.994 17.841-17.846V84.412c.086-.675.623-4.168 2.748-6.296 2.524-2.524 6.479-2.883 6.479-2.85 0 0-.017-.019-.021-.019H135.892c9.854 0 17.844-7.987 17.844-17.846v-.034-.041c0-9.856-7.989-17.844-17.844-17.844H123.332c-.785-.105-4.175-.666-6.25-2.738-2.018-2.019-2.614-4.91-2.754-5.992V17.854v-.011C114.329 7.985 106.338 0 96.484 0 86.63 0 78.643 7.985 78.643 17.842z"/><g fill="#535E66"><path d="M183.471 130.444h-42.465c1.348 12.358 8.323 17.621 16.153 17.621 5.386 0 9.667-1.956 13.95-5.14l7.466 8.076c-5.628 5.383-12.36 8.444-22.149 8.444-15.051 0-27.779-12.116-27.779-33.407 0-21.783 11.503-33.531 28.146-33.531 18.233 0 27.044 14.807 27.044 32.185 0 2.326-.244 4.406-.366 5.752zm-27.535-26.554c-8.444 0-13.582 5.873-14.686 16.153h29.859c-.61-8.812-4.771-16.153-15.173-16.153zM230.244 158.099v-36.344c0-12.972-4.893-17.621-13.216-17.621-8.442 0-13.216 5.997-13.216 16.398v37.566h-12.604V93.854h12.604v6.119c3.18-4.65 9.545-7.465 16.153-7.465 14.929 0 22.882 9.791 22.882 28.758v36.832h-12.603zM291.769 158.099v-6.116c-4.648 4.284-10.031 7.464-16.764 7.464-13.824 0-24.719-10.033-24.719-34.509 0-22.027 11.995-32.429 25.333-32.429 6.484 0 12.604 3.427 16.15 7.343V75.376l12.482-6.486v89.208h-12.482zm.125-45.522c-2.816-3.794-8.691-8.443-15.053-8.443-9.055 0-13.947 6.851-13.947 20.435 0 16.151 5.137 23.253 14.438 23.253 5.996 0 11.258-4.04 14.563-8.201v-27.044zM406.443 158.099h-12.602l-23.006-64.244h13.215l11.506 34.876c2.076 6.241 3.914 12.238 4.771 15.787.732-3.549 2.445-9.546 4.404-15.787l11.016-34.876h13.338l-22.642 64.244zM353.421 158.099v-6.116c-4.648 4.284-10.033 7.464-16.766 7.464-13.824 0-24.719-10.033-24.719-34.509 0-22.027 11.994-32.429 25.332-32.429 6.484 0 12.605 3.427 16.152 7.343v-6.033h12.48v64.28h-12.479zm.125-45.522c-2.816-3.794-8.691-8.443-15.055-8.443-9.055 0-13.949 6.851-13.949 20.435 0 16.151 5.139 23.253 14.441 23.253 5.994 0 11.256-4.04 14.563-8.201v-27.044zM469.812 158.099v-6.116c-4.648 4.284-10.033 7.464-16.766 7.464-13.826 0-24.719-10.033-24.719-34.509 0-22.027 11.994-32.429 25.332-32.429 6.484 0 12.605 3.427 16.152 7.343v-6.033h12.48v64.28h-12.479zm.125-45.522c-2.816-3.794-8.691-8.443-15.055-8.443-9.055 0-13.949 6.851-13.949 20.435 0 16.151 5.139 23.253 14.439 23.253 5.996 0 11.258-4.04 14.564-8.201v-27.044z"/></g></svg>