<svg height="28" viewBox="0 0 92 28" width="92" xmlns="http://www.w3.org/2000/svg">
<g fill="none" fill-rule="evenodd">
<path d="m.196.582h6.159v25.047h-6.159z" fill="#296cae"/>
<g fill-rule="nonzero">
<path d="m10.399 25.629v-18.621h5.633v1.732c.725-.727 1.543-1.27 2.454-1.628.912-.358 1.936-.537 3.071-.537 2.029 0 3.538.641 4.528 1.923.991 1.281 1.486 3.245 1.486 5.889v11.242h-5.634v-10.965c0-1.258-.221-2.182-.665-2.771s-1.145-.884-2.105-.884c-1.13 0-1.935.275-2.415.823-.48.549-.72 1.493-.72 2.832v10.965zm21.292 0v-14.758h-2.862v-3.413h2.862c-.036-.381-.057-.658-.063-.831-.007-.174-.009-.329-.009-.468 0-1.974.481-3.398 1.443-4.27.962-.871 2.538-1.307 4.728-1.307.48 0 .971.028 1.47.086s1.019.15 1.561.277v3.898h-.942c-1.039 0-1.724.127-2.056.381-.333.254-.498.762-.498 1.524v.71h3.496v3.413h-3.496v14.758zm15.016-9.302c0 1.698.39 3.046 1.169 4.045s1.82 1.498 3.125 1.498c1.304 0 2.348-.502 3.133-1.507s1.177-2.35 1.177-4.036c0-1.698-.389-3.049-1.168-4.053-.779-1.005-1.827-1.507-3.142-1.507-1.293 0-2.331.508-3.116 1.524s-1.178 2.362-1.178 4.036m4.294 9.908c-3.02 0-5.45-.906-7.292-2.72-1.841-1.812-2.762-4.209-2.762-7.188 0-2.968.924-5.364 2.772-7.189 1.847-1.824 4.274-2.736 7.282-2.736 3.042 0 5.485.909 7.326 2.728 1.842 1.819 2.763 4.217 2.763 7.197 0 2.968-.927 5.361-2.781 7.18-1.853 1.819-4.29 2.728-7.308 2.728" fill="#296cae"/>
<path d="m76.028 20.986c1.996 0 3.553-.689 4.672-2.069 1.118-1.38 1.677-3.306 1.677-5.777s-.562-4.403-1.687-5.794c-1.125-1.392-2.678-2.088-4.662-2.088-1.971 0-3.522.702-4.652 2.105-1.131 1.403-1.696 3.329-1.696 5.777s.562 4.368 1.686 5.759c1.125 1.392 2.679 2.087 4.662 2.087m6.657 3.69c-.931.508-1.958.895-3.082 1.161-1.124.265-2.315.398-3.572.398-3.856 0-6.941-1.189-9.256-3.568-2.314-2.379-3.472-5.555-3.472-9.527 0-2.171.353-4.114 1.061-5.829.707-1.715 1.761-3.179 3.163-4.391 1.124-.97 2.396-1.698 3.816-2.183s2.981-.727 4.685-.727c3.843 0 6.925 1.195 9.245 3.586 2.32 2.39 3.48 5.571 3.48 9.544 0 1.663-.193 3.167-.579 4.512-.387 1.346-.984 2.561-1.794 3.646.725.635 1.516 1.141 2.373 1.516.858.375 1.776.615 2.754.719l-1.884 4.469c-1.425-.139-2.72-.488-3.885-1.048-1.166-.561-2.183-1.32-3.053-2.278" fill="#1e8d44"/>
<path d="m86.38 21.298c.809-1.085 1.407-2.301 1.794-3.646.185-.643.322-1.325.418-2.041-2.205.111-4.373.218-6.51.32-.272 1.18-.729 2.179-1.383 2.986-1.118 1.38-2.676 2.069-4.671 2.069-1.983 0-3.537-.695-4.662-2.087-.554-.685-.969-1.499-1.25-2.44-2.172.086-4.317.165-6.445.236.504 2.357 1.53 4.353 3.104 5.972 2.315 2.379 5.4 3.568 9.256 3.568 1.257 0 2.448-.133 3.572-.399 1.124-.265 2.151-.652 3.082-1.16.87.958 1.887 1.717 3.053 2.278 1.164.56 2.46.909 3.885 1.048l1.883-4.469c-.977-.104-1.895-.344-2.753-.719-.857-.375-1.648-.881-2.373-1.516" fill="#198643"/>
<path d="m54.134 20.363c-.785 1.005-1.829 1.507-3.133 1.507-1.305 0-2.346-.499-3.125-1.499-.658-.844-1.035-1.94-1.137-3.283-1.92.022-3.84.035-5.76.039.153 2.609 1.058 4.742 2.73 6.388 1.842 1.814 4.273 2.72 7.292 2.72 3.018 0 5.455-.909 7.308-2.728 1.757-1.724 2.671-3.971 2.763-6.728-1.938.059-3.864.113-5.779.158-.085 1.404-.471 2.546-1.159 3.426m-22.443 5.266h5.634v-8.505c-1.871-.007-3.747-.023-5.634-.049zm-21.292 0h5.633v-8.992c-1.857-.078-3.733-.164-5.633-.262zm11.538 0h5.634v-8.627c-1.865-.04-3.74-.087-5.634-.147zm-21.741 0h6.159v-9.477c-2.024-.119-4.073-.247-6.159-.389z" fill="#2066a9"/>
</g>
</g>
</svg>