<svg xmlns="http://www.w3.org/2000/svg" width="549.961" height="181.477"><title>Map Camp Logo</title><path fill="#5F5F5F" d="M218.195 86.917l16.168-18.653h10.893v50.304h-12.531V87.169l-13.591 15.772h-1.881l-13.587-15.772v31.399h-12.532V68.264h10.881l16.18 18.653zM286.878 99.844l-8.152-19.553-7.39 19.553h15.542zm-1.058-31.58l22.344 50.304h-13.477l-4.145-9.938h-22.527l-3.757 9.938H250.98l20.32-50.304h14.52zM326.996 77.482v11.667h5.834c5.209 0 7.813-1.944 7.813-5.833 0-2.185-.696-3.703-2.088-4.555s-3.769-1.278-7.13-1.278h-4.429v-.001zm-12.532-9.218h22.433c5.09 0 9.135 1.477 12.137 4.429 3 2.953 4.501 6.445 4.501 10.479 0 4.177-1.483 7.754-4.448 10.73-2.964 2.977-7.003 4.465-12.117 4.465h-9.974v20.201h-12.531V68.264h-.001zM411.297 104.143v7.383c-4.921 2.685-10.604 4.027-17.047 4.027-5.236 0-9.676-1.052-13.324-3.154-3.646-2.104-6.532-5-8.658-8.691-2.125-3.692-3.187-7.686-3.187-11.98 0-6.824 2.432-12.563 7.298-17.216 4.867-4.654 10.868-6.98 18.004-6.98 4.922 0 10.393 1.287 16.41 3.859v7.215c-5.48-3.132-10.838-4.698-16.074-4.698-5.369 0-9.827 1.694-13.373 5.084-3.546 3.389-5.319 7.634-5.319 12.736 0 5.145 1.745 9.374 5.235 12.684 3.49 3.313 7.953 4.968 13.39 4.968 5.683-.002 11.231-1.747 16.645-5.237zM446.093 95.148l-7.563-16.98-7.014 16.98h14.577zm-9.86-27.282h4.719l21.019 47.15h-6.869l-6.248-13.895h-20.002l-5.856 13.895h-6.898l20.135-47.15zM504.389 68.134h6.277v46.882h-6.748V78.538l-14.413 18.121h-1.241l-14.582-18.121v36.478h-6.711V68.134h6.355l15.577 19.255 15.486-19.255zM534.088 74.041h-6.947v14.666h7.35c2.729 0 4.834-.644 6.31-1.93 1.477-1.287 2.215-3.126 2.215-5.521-.001-4.81-2.975-7.215-8.928-7.215zm-13.692 40.975V68.067h14.866c4.475 0 8.043 1.208 10.706 3.624 2.662 2.417 3.993 5.661 3.993 9.732 0 2.729-.682 5.146-2.046 7.249-1.366 2.103-3.234 3.63-5.605 4.581-2.371.951-5.771 1.427-10.202 1.427h-4.967v20.336h-6.745z"/><path fill="#919191" d="M78.785 147.091c-22.372-4.618-39.966-22.302-44.464-44.712l-20.537-3.114c3.803 35.901 32.259 64.452 68.116 68.396l-3.115-20.57zM13.861 82.199l20.594-3.121c4.689-22.079 22.117-39.45 44.234-44.056l3.115-20.582c-35.603 3.963-63.885 32.182-67.943 67.759zm85.201-67.752l3.114 20.575c22.11 4.605 39.545 21.977 44.234 44.056l20.594 3.121c-4.058-35.57-32.335-63.79-67.942-67.752zm47.482 87.932c-4.498 22.417-22.092 40.094-44.463 44.712l-3.115 20.569c35.863-3.943 64.312-32.494 68.114-68.396l-20.536 3.115z"/><path fill="#919191" d="M167.476 88.709l-20.054-3.038-37.455-5.676 16.689-25.168-25.365 16.823-5.702-37.609-3.039-20.046L90.429 0l-2.121 13.995-3.038 20.046-5.695 37.603-25.366-16.817 16.689 25.168-37.456 5.676-20.052 3.038L0 90.735l13.371 2.027 20.021 3.031 37.883 5.738-17.066 25.737 25.455-16.881 5.707 37.672 3.039 20.046 2.026 13.372 2.025-13.372 3.039-20.046 5.701-37.672 25.455 16.881-17.066-25.737 37.884-5.738 20.02-3.031 13.371-2.027-13.389-2.026z"/><path fill="#919191" d="M100.52 93.162a10.383 10.383 0 0 1-7.657 7.658c-.776.183-1.592.285-2.426.285-.835 0-1.65-.103-2.434-.285a10.38 10.38 0 0 1-7.65-7.652 10.43 10.43 0 0 1-.153-4.09 10.37 10.37 0 0 1 11.893-8.574 10.361 10.361 0 0 1 8.715 10.237 10.17 10.17 0 0 1-.288 2.421z"/></svg>