<svg xmlns="http://www.w3.org/2000/svg" width="549.961" height="181.477"><path fill="#007497" d="M218.195 86.917l16.168-18.653h10.893v50.304h-12.531V87.169l-13.591 15.772h-1.881l-13.587-15.772v31.399h-12.532V68.264h10.881l16.18 18.653zM286.878 99.844l-8.152-19.553-7.39 19.553h15.542zm-1.058-31.58l22.344 50.304h-13.477l-4.145-9.938h-22.527l-3.757 9.938H250.98l20.32-50.304h14.52zM326.996 77.482v11.667h5.834c5.209 0 7.813-1.944 7.813-5.833 0-2.185-.696-3.703-2.088-4.555s-3.769-1.278-7.13-1.278h-4.429v-.001zm-12.532-9.218h22.433c5.09 0 9.135 1.477 12.137 4.429 3 2.953 4.501 6.445 4.501 10.479 0 4.177-1.483 7.754-4.448 10.73-2.964 2.977-7.003 4.465-12.117 4.465h-9.974v20.201h-12.531V68.264h-.001zM411.297 104.143v7.383c-4.921 2.685-10.604 4.027-17.047 4.027-5.236 0-9.676-1.052-13.324-3.154-3.646-2.104-6.532-5-8.658-8.691-2.125-3.692-3.187-7.686-3.187-11.98 0-6.824 2.432-12.563 7.298-17.216 4.867-4.654 10.868-6.98 18.004-6.98 4.922 0 10.393 1.287 16.41 3.859v7.215c-5.48-3.132-10.838-4.698-16.074-4.698-5.369 0-9.827 1.694-13.373 5.084-3.546 3.389-5.319 7.634-5.319 12.736 0 5.145 1.745 9.374 5.235 12.684 3.49 3.313 7.953 4.968 13.39 4.968 5.683-.002 11.231-1.747 16.645-5.237zM446.093 95.148l-7.563-16.98-7.014 16.98h14.577zm-9.86-27.282h4.719l21.019 47.15h-6.869l-6.248-13.895h-20.002l-5.856 13.895h-6.898l20.135-47.15zM504.389 68.134h6.277v46.882h-6.748V78.538l-14.413 18.121h-1.241l-14.582-18.121v36.478h-6.711V68.134h6.355l15.577 19.255 15.486-19.255zM534.088 74.041h-6.947v14.666h7.35c2.729 0 4.834-.644 6.31-1.93 1.477-1.287 2.215-3.126 2.215-5.521-.001-4.81-2.975-7.215-8.928-7.215zm-13.692 40.975V68.067h14.866c4.475 0 8.043 1.208 10.706 3.624 2.662 2.417 3.993 5.661 3.993 9.732 0 2.729-.682 5.146-2.046 7.249-1.366 2.103-3.234 3.63-5.605 4.581-2.371.951-5.771 1.427-10.202 1.427h-4.967v20.336h-6.745z"/><path fill="#0094C8" d="M78.785 147.091c-22.372-4.618-39.966-22.302-44.464-44.712l-20.537-3.114c3.803 35.901 32.259 64.452 68.116 68.396l-3.115-20.57zM13.861 82.199l20.594-3.121c4.689-22.079 22.117-39.45 44.234-44.056l3.115-20.582c-35.603 3.963-63.885 32.182-67.943 67.759zm85.201-67.752l3.114 20.575c22.11 4.605 39.545 21.977 44.234 44.056l20.594 3.121c-4.058-35.57-32.335-63.79-67.942-67.752zm47.482 87.932c-4.498 22.417-22.092 40.094-44.463 44.712l-3.115 20.569c35.863-3.943 64.312-32.494 68.114-68.396l-20.536 3.115z"/><path fill="#0094C8" d="M167.476 88.709l-20.054-3.038-37.455-5.676 16.689-25.168-25.365 16.823-5.702-37.609-3.039-20.046L90.429 0l-2.121 13.995-3.038 20.046-5.695 37.603-25.366-16.817 16.689 25.168-37.456 5.676-20.052 3.038L0 90.735l13.371 2.027 20.021 3.031 37.883 5.738-17.066 25.737 25.455-16.881 5.707 37.672 3.039 20.046 2.026 13.372 2.025-13.372 3.039-20.046 5.701-37.672 25.455 16.881-17.066-25.737 37.884-5.738 20.02-3.031 13.371-2.027-13.389-2.026z"/><path fill="#0094C8" d="M100.52 93.162a10.383 10.383 0 0 1-7.657 7.658c-.776.183-1.592.285-2.426.285-.835 0-1.65-.103-2.434-.285a10.38 10.38 0 0 1-7.65-7.652 10.43 10.43 0 0 1-.153-4.09 10.37 10.37 0 0 1 11.893-8.574 10.361 10.361 0 0 1 8.715 10.237 10.17 10.17 0 0 1-.288 2.421z"/><g fill="#007497"><path d="M189.501 156.99c0-6.119 4.59-11.898 12.375-11.898 7.547 0 12.409 5.576 12.409 11.898 0 6.936-5.576 11.899-12.545 11.899-6.799.001-12.239-5.065-12.239-11.899zm22.064-.067c0-4.59-3.536-9.417-9.689-9.417-5.949 0-9.655 4.521-9.655 9.52 0 5.643 4.521 9.45 9.485 9.45 5.542 0 9.859-3.978 9.859-9.553zM229.008 156.447c-.884-.51-2.244-1.258-4.182-1.258-4.045 0-5.099 3.841-5.099 5.813 0 2.551 1.394 5.712 5.507 5.712 1.87 0 3.399-.681 4.08-.985v2.311c-.714.272-2.312.851-4.318.851-4.963 0-7.683-3.399-7.683-7.819 0-4.998 3.264-8.057 7.513-8.057 1.836 0 3.196.51 4.182.918v2.514zM230.811 155.02l4.964-5.27v3.568h4.589v2.074h-4.589v7.989c0 1.972.136 3.332 2.277 3.332 1.19 0 1.938-.374 3.094-.918v2.21c-.646.306-1.904.884-3.569.884-3.06 0-4.148-2.108-4.148-4.556v-8.941h-2.618v-.372zM258.417 160.934c0 4.387-3.57 7.956-7.955 7.956-4.386 0-7.921-3.569-7.921-7.956a7.907 7.907 0 0 1 7.921-7.92c4.385 0 7.955 3.535 7.955 7.92zm-13.462 0c0 3.23 2.346 5.883 5.541 5.883 3.196 0 5.508-2.652 5.508-5.883 0-3.229-2.312-5.847-5.508-5.847s-5.541 2.618-5.541 5.847zM262.09 145.398h2.346v9.553c.748-.578 2.312-1.938 4.827-1.938 4.284 0 6.698 3.671 6.698 7.58 0 4.998-3.162 8.296-8.228 8.296-1.938 0-3.875-.408-5.643-1.156v-22.335zm2.346 20.805c1.734.613 3.195.613 3.501.613 3.196 0 5.609-2.551 5.609-6.018 0-3.264-2.108-5.712-4.759-5.712-1.122 0-2.822.577-4.352 2.243v8.874zM292.552 161.104h-11.32c0 3.672 2.55 5.713 5.474 5.713 2.991 0 4.861-1.531 5.609-2.143v2.38c-.952.646-2.652 1.836-5.882 1.836-5.1 0-7.615-3.876-7.615-7.989 0-5.304 3.536-7.887 7.004-7.887 3.773 0 6.73 3.094 6.73 7.547v.543zm-2.413-1.7c-.34-3.297-2.584-4.317-4.25-4.317-1.903 0-3.943 1.224-4.521 4.317h8.771zM298.299 153.318v3.366c.408-.646 1.292-1.972 2.55-2.821.306-.204 1.292-.85 2.312-.85 1.462 0 3.06 1.325 3.638 1.801l-1.258 2.04c-.51-.442-1.632-1.428-2.958-1.428-1.359 0-3.025 1.224-3.739 2.89-.544 1.225-.544 2.89-.544 3.672v6.596h-2.346v-15.266h2.345zM330.496 166.17v2.414h-14.721v-.137a78.4 78.4 0 0 0 5.95-7.037c3.06-4.08 4.283-6.596 4.283-9.213 0-3.434-2.754-4.691-4.624-4.691-2.617 0-4.657 2.209-5.201 2.855v-3.094c1.904-1.632 3.808-2.176 5.474-2.176 3.808 0 6.901 2.89 6.901 6.834 0 4.656-3.91 9.484-7.854 14.244h9.792zM340.084 145.092c3.978 0 7.445 4.25 7.445 11.898 0 7.65-3.468 11.899-7.445 11.899s-7.445-4.249-7.445-11.899c0-7.648 3.468-11.898 7.445-11.898zm0 2.38c-3.094 0-4.896 4.454-4.896 9.519 0 5.1 1.802 9.52 4.861 9.52 3.128 0 4.93-4.42 4.93-9.52.001-5.065-1.801-9.519-4.895-9.519zM358.342 168.584h-2.55v-23.186h2.55v23.186zM369.835 166.986c3.399-2.721 6.561-4.965 7.853-9.996-1.088.715-2.583 1.395-4.386 1.395-3.909 0-6.493-3.162-6.493-6.527 0-4.148 3.229-6.766 6.8-6.766 4.487 0 7.207 3.468 7.207 8.159 0 8.466-6.527 13.497-9.485 15.639l-1.496-1.904zm8.431-14.142c0-2.687-1.53-5.406-4.623-5.406-2.278 0-4.284 1.598-4.284 4.25 0 2.074 1.19 4.317 4.487 4.317 1.599 0 3.094-.578 4.352-1.733.034-.376.068-.885.068-1.428zM385.135 172.153c.952-.952 1.326-1.87 1.189-3.06-1.495-.477-1.495-1.666-1.495-1.904 0-1.224.884-1.972 1.699-1.972 1.292 0 1.972 1.224 1.972 2.754 0 1.155-.441 3.773-3.365 4.726v-.544z"/></g><g fill="#007497"><path d="M402.892 166.34h10.947v2.244h-13.497v-23.186h2.55v20.942zM431.315 160.934c0 4.387-3.57 7.956-7.956 7.956-4.385 0-7.921-3.569-7.921-7.956a7.907 7.907 0 0 1 7.921-7.92c4.386 0 7.956 3.535 7.956 7.92zm-13.463 0c0 3.23 2.346 5.883 5.541 5.883 3.196 0 5.508-2.652 5.508-5.883 0-3.229-2.312-5.847-5.508-5.847-3.195 0-5.541 2.618-5.541 5.847zM437.333 153.318v2.313c1.122-1.496 2.617-2.617 4.793-2.617 3.434 0 5.474 2.516 5.474 6.459v9.111h-2.346v-8.908c0-2.583-.985-4.589-3.672-4.589-.884 0-2.821.272-4.249 2.686v10.812h-2.346v-15.266h2.346zM459.365 168.584c-5.338 0-8.432-2.721-8.432-7.615 0-4.284 2.686-7.955 7.581-7.955 1.87 0 3.229.646 3.876.918v-8.533h2.346v23.186h-5.371zm3.025-12.512c-.544-.306-1.768-.985-3.502-.985-3.773 0-5.541 2.753-5.541 5.813 0 3.672 2.447 5.609 6.051 5.609h2.992v-10.437zM484.251 160.934c0 4.387-3.57 7.956-7.956 7.956-4.385 0-7.921-3.569-7.921-7.956a7.907 7.907 0 0 1 7.921-7.92c4.386 0 7.956 3.535 7.956 7.92zm-13.462 0c0 3.23 2.346 5.883 5.541 5.883 3.196 0 5.508-2.652 5.508-5.883 0-3.229-2.312-5.847-5.508-5.847s-5.541 2.618-5.541 5.847zM490.27 153.318v2.313c1.122-1.496 2.617-2.617 4.793-2.617 3.435 0 5.474 2.516 5.474 6.459v9.111h-2.346v-8.908c0-2.583-.985-4.589-3.672-4.589-.884 0-2.821.272-4.249 2.686v10.812h-2.346v-15.266h2.346z"/></g></svg>