<svg xmlns="http://www.w3.org/2000/svg" width="549.961" height="181.477"><path fill="#007497" d="M218.195 86.917l16.168-18.653h10.893v50.304h-12.531V87.169l-13.591 15.772h-1.881l-13.587-15.772v31.399h-12.532V68.264h10.881l16.18 18.653zM286.878 99.844l-8.152-19.553-7.39 19.553h15.542zm-1.058-31.58l22.344 50.304h-13.477l-4.145-9.938h-22.527l-3.757 9.938H250.98l20.32-50.304h14.52zM326.996 77.482v11.667h5.834c5.209 0 7.813-1.944 7.813-5.833 0-2.185-.696-3.703-2.088-4.555s-3.769-1.278-7.13-1.278h-4.429v-.001zm-12.532-9.218h22.433c5.09 0 9.135 1.477 12.137 4.429 3 2.953 4.501 6.445 4.501 10.479 0 4.177-1.483 7.754-4.448 10.73-2.964 2.977-7.003 4.465-12.117 4.465h-9.974v20.201h-12.531V68.264h-.001zM411.297 104.143v7.383c-4.921 2.685-10.604 4.027-17.047 4.027-5.236 0-9.676-1.052-13.324-3.154-3.646-2.104-6.532-5-8.658-8.691-2.125-3.692-3.187-7.686-3.187-11.98 0-6.824 2.432-12.563 7.298-17.216 4.867-4.654 10.868-6.98 18.004-6.98 4.922 0 10.393 1.287 16.41 3.859v7.215c-5.48-3.132-10.838-4.698-16.074-4.698-5.369 0-9.827 1.694-13.373 5.084-3.546 3.389-5.319 7.634-5.319 12.736 0 5.145 1.745 9.374 5.235 12.684 3.49 3.313 7.953 4.968 13.39 4.968 5.683-.002 11.231-1.747 16.645-5.237zM446.093 95.148l-7.563-16.98-7.014 16.98h14.577zm-9.86-27.282h4.719l21.019 47.15h-6.869l-6.248-13.895h-20.002l-5.856 13.895h-6.898l20.135-47.15zM504.389 68.134h6.277v46.882h-6.748V78.538l-14.413 18.121h-1.241l-14.582-18.121v36.478h-6.711V68.134h6.355l15.577 19.255 15.486-19.255zM534.088 74.041h-6.947v14.666h7.35c2.729 0 4.834-.644 6.31-1.93 1.477-1.287 2.215-3.126 2.215-5.521-.001-4.81-2.975-7.215-8.928-7.215zm-13.692 40.975V68.067h14.866c4.475 0 8.043 1.208 10.706 3.624 2.662 2.417 3.993 5.661 3.993 9.732 0 2.729-.682 5.146-2.046 7.249-1.366 2.103-3.234 3.63-5.605 4.581-2.371.951-5.771 1.427-10.202 1.427h-4.967v20.336h-6.745z"/><path fill="#0094C8" d="M78.785 147.091c-22.372-4.618-39.966-22.302-44.464-44.712l-20.537-3.114c3.803 35.901 32.259 64.452 68.116 68.396l-3.115-20.57zM13.861 82.199l20.594-3.121c4.689-22.079 22.117-39.45 44.234-44.056l3.115-20.582c-35.603 3.963-63.885 32.182-67.943 67.759zm85.201-67.752l3.114 20.575c22.11 4.605 39.545 21.977 44.234 44.056l20.594 3.121c-4.058-35.57-32.335-63.79-67.942-67.752zm47.482 87.932c-4.498 22.417-22.092 40.094-44.463 44.712l-3.115 20.569c35.863-3.943 64.312-32.494 68.114-68.396l-20.536 3.115z"/><path fill="#0094C8" d="M167.476 88.709l-20.054-3.038-37.455-5.676 16.689-25.168-25.365 16.823-5.702-37.609-3.039-20.046L90.429 0l-2.121 13.995-3.038 20.046-5.695 37.603-25.366-16.817 16.689 25.168-37.456 5.676-20.052 3.038L0 90.735l13.371 2.027 20.021 3.031 37.883 5.738-17.066 25.737 25.455-16.881 5.707 37.672 3.039 20.046 2.026 13.372 2.025-13.372 3.039-20.046 5.701-37.672 25.455 16.881-17.066-25.737 37.884-5.738 20.02-3.031 13.371-2.027-13.389-2.026z"/><path fill="#0094C8" d="M100.52 93.162a10.383 10.383 0 01-7.657 7.658c-.776.183-1.592.285-2.426.285-.835 0-1.65-.103-2.434-.285a10.38 10.38 0 01-7.65-7.652 10.43 10.43 0 01-.153-4.09 10.37 10.37 0 0111.893-8.574 10.361 10.361 0 018.715 10.237 10.17 10.17 0 01-.288 2.421z"/><g fill="#007497"><path d="M193.241 168.244c0 1.768-.204 3.773-.918 4.963-1.054 1.768-2.618 2.686-4.963 2.686-.17 0-.51 0-.782-.033l-.442-2.448c.271.034.544.067.952.067 3.501 0 3.604-2.821 3.604-5.541v-22.539h2.55v22.845zM208.03 168.584v-2.313c-1.122 1.496-2.618 2.618-4.793 2.618-3.434 0-5.474-2.517-5.474-6.46v-9.111h2.346v8.908c0 2.584.986 4.59 3.672 4.59.884 0 2.821-.273 4.25-2.687v-10.812h2.346v15.266h-2.347zM217.143 168.584h-2.346v-23.186h2.346v23.186zM222.854 176.402h-2.516l5.27-10.947-6.188-12.137h2.55l4.861 9.621 4.59-9.621h2.55l-11.117 23.084zM258.451 166.17v2.414H243.73v-.137a78.39 78.39 0 005.949-7.037c3.06-4.08 4.284-6.596 4.284-9.213 0-3.434-2.754-4.691-4.624-4.691-2.618 0-4.658 2.209-5.202 2.855v-3.094c1.904-1.632 3.808-2.176 5.474-2.176 3.808 0 6.901 2.89 6.901 6.834 0 4.656-3.91 9.484-7.853 14.244h9.792zM268.039 145.092c3.978 0 7.445 4.25 7.445 11.898 0 7.65-3.468 11.899-7.445 11.899s-7.445-4.249-7.445-11.899c0-7.648 3.468-11.898 7.445-11.898zm0 2.38c-3.094 0-4.896 4.454-4.896 9.519 0 5.1 1.802 9.52 4.862 9.52 3.127 0 4.929-4.42 4.929-9.52.001-5.065-1.801-9.519-4.895-9.519zM292.451 166.17v2.414H277.73v-.137a78.555 78.555 0 005.949-7.037c3.06-4.08 4.283-6.596 4.283-9.213 0-3.434-2.753-4.691-4.623-4.691-2.618 0-4.657 2.209-5.201 2.855v-3.094c1.903-1.632 3.808-2.176 5.473-2.176 3.809 0 6.901 2.89 6.901 6.834 0 4.656-3.909 9.484-7.853 14.244h9.792zM302.04 145.092c3.978 0 7.445 4.25 7.445 11.898 0 7.65-3.468 11.899-7.445 11.899s-7.445-4.249-7.445-11.899c-.001-7.648 3.467-11.898 7.445-11.898zm0 2.38c-3.094 0-4.896 4.454-4.896 9.519 0 5.1 1.802 9.52 4.861 9.52 3.128 0 4.93-4.42 4.93-9.52 0-5.065-1.802-9.519-4.895-9.519zM313.09 172.153c.952-.952 1.326-1.87 1.189-3.06-1.495-.477-1.495-1.666-1.495-1.904 0-1.224.884-1.972 1.699-1.972 1.292 0 1.972 1.224 1.972 2.754 0 1.155-.441 3.773-3.365 4.726v-.544z"/></g><g fill="#007497"><path d="M353.754 149.783c-3.739-2.312-7.344-2.379-8.228-2.379-5.575 0-9.587 4.249-9.587 9.586 0 6.324 4.964 9.655 9.554 9.655 2.957 0 5.371-.985 6.187-1.292v-5.508h-4.691v-2.243h7.241v9.349c-2.787 1.225-5.473 1.938-8.499 1.938-7.853 0-12.511-5.644-12.511-11.864 0-6.563 4.964-11.934 12.477-11.934 3.332 0 5.813 1.02 8.058 1.972v2.72zM371.468 161.104h-11.32c0 3.672 2.55 5.713 5.474 5.713 2.991 0 4.861-1.531 5.609-2.143v2.38c-.952.646-2.652 1.836-5.882 1.836-5.1 0-7.615-3.876-7.615-7.989 0-5.304 3.536-7.887 7.004-7.887 3.773 0 6.73 3.094 6.73 7.547v.543zm-2.413-1.7c-.34-3.297-2.584-4.317-4.25-4.317-1.903 0-3.943 1.224-4.521 4.317h8.771zM377.215 153.318v3.366c.408-.646 1.292-1.972 2.55-2.821.306-.204 1.292-.85 2.312-.85 1.462 0 3.06 1.325 3.638 1.801l-1.258 2.04c-.51-.442-1.632-1.428-2.958-1.428-1.359 0-3.025 1.224-3.739 2.89-.544 1.225-.544 2.89-.544 3.672v6.596h-2.346v-15.266h2.345zM389.557 155.664c1.394-1.631 2.651-2.65 4.76-2.65 2.89 0 4.215 2.176 4.657 3.195 2.006-2.822 3.943-3.195 5.201-3.195 4.284 0 5.235 3.807 5.235 6.425v9.146h-2.346v-9.146c0-1.733-.544-4.352-3.298-4.352-1.394 0-3.161.851-4.283 2.753v10.744h-2.346v-9.078c0-2.821-1.088-4.419-3.502-4.419-1.869 0-3.06 1.19-4.079 2.618v10.879h-2.346v-15.266h2.346v2.346zM425.833 167.496c-1.904 1.359-2.618 1.394-3.025 1.394-1.258 0-1.53-1.021-1.666-1.733-1.904 1.428-3.094 1.733-4.454 1.733-2.142 0-3.943-1.632-3.943-3.876 0-2.481 2.04-4.487 8.363-5.609v-1.359c0-.986-.17-2.958-3.025-2.958-2.006 0-3.434 1.021-4.76 2.243v-2.447c.748-.646 2.481-1.869 4.964-1.869 4.352 0 5.167 3.059 5.167 4.793v8.363c0 .646.068.816.408.816.306 0 1.054-.341 1.972-1.088v1.597zm-4.725-6.562c-3.909.715-6.018 2.006-6.018 3.91 0 1.836 1.7 2.346 2.584 2.346 1.632 0 2.855-1.088 3.434-1.632v-4.624zM430.764 153.318v2.313c1.122-1.496 2.617-2.617 4.793-2.617 3.435 0 5.474 2.516 5.474 6.459v9.111h-2.346v-8.908c0-2.583-.985-4.589-3.672-4.589-.884 0-2.821.272-4.249 2.686v10.812h-2.346v-15.266h2.346zM446.438 176.402h-2.516l5.269-10.947-6.187-12.137h2.55l4.861 9.621 4.589-9.621h2.55l-11.116 23.084z"/></g></svg>